<svg xmlns="http://www.w3.org/2000/svg" xmlns:xlink="http://www.w3.org/1999/xlink" version="1.1" x="0px" y="0px" viewBox="0 0 500 625" enable-background="new 0 0 500 500" xml:space="preserve"><g><path fill="#000000" d="M416.421,135.312L252.415,65.517c-1.5-0.639-3.198-0.639-4.699,0l-164,69.795   c-2.212,0.941-3.649,3.113-3.65,5.517c0,0.001,0,0.003,0,0.005v218.678c0,2.403,1.434,4.574,3.644,5.518l163.965,70.026   c0.267,0.116,0.541,0.212,0.819,0.287c-0.001,0.006,0.003,0,0.005,0.002c0.004,0.001,0.01,0.005,0.011,0.003   c0.511,0.137,1.034,0.205,1.556,0.205h0h0c0.544,0,1.089-0.074,1.62-0.223c0.003-0.006,0.008-0.003,0.011-0.004   c0.257-0.072,0.51-0.162,0.757-0.269l163.974-70.028c2.21-0.943,3.644-3.114,3.644-5.518V140.833c0-0.001,0-0.002,0-0.004   C420.069,138.425,418.633,136.253,416.421,135.312z M250.066,77.559l61.411,26.134l-147.03,63.14l0.501,1.166l-63.583-27.156   L250.066,77.559z M244.066,420.466l-152-64.916V149.92l152,64.92V420.466z M250.066,204.354l-71.484-30.531l148.169-63.629   l72.021,30.65L250.066,204.354z M408.071,355.55l-152.006,64.916V214.84l152.006-64.92V355.55z"/><path fill="#000000" d="M138.163,225.232l49.497,20.982c1.274,0.54,2.597,0.795,3.898,0.795c3.894,0,7.596-2.289,9.211-6.1   c2.155-5.085-0.219-10.954-5.304-13.11l-49.497-20.982c-5.085-2.156-10.954,0.219-13.11,5.304   C130.704,217.207,133.078,223.076,138.163,225.232z"/></g></svg>
