<svg xmlns="http://www.w3.org/2000/svg" xmlns:xlink="http://www.w3.org/1999/xlink" version="1.1" x="0px" y="0px" viewBox="0 0 100 125" enable-background="new 0 0 100 100" xml:space="preserve"><g><path d="M92.1,13.3c1-1.4,2.1-2.9,1.8-4.2c-0.1-0.7-0.6-1.3-1.3-1.7c-1.1-0.7-2-1-2.9-1c-1.9,0-2.8,1.6-3,3.1   c-0.1,0.4-0.6,0.8-1.1,1.2c-1.1,0.8-2.6,1.9-1.8,4.3c1.1,3,1,4.5,1,4.7c-1.7,4.7-2.1,7.9-2.2,9c-0.2,0-0.4,0-0.5,0c0,0-0.1,0-0.1,0   c0-0.6-0.3-1.3-1.3-1.9c-0.7-0.4-1.4-0.6-1.9-0.4c-0.1,0-0.1,0.1-0.2,0.1c0-0.1,0-0.2-0.1-0.3c0-0.1,0-0.2,0-0.2l0-0.1   c0-0.1,0-0.1-0.1-0.2c-0.2-1.1-0.7-3.8-1.8-8.9C77,13.8,76.9,8.5,75,6.2c-0.8-1-1.9-1.3-3.3-1.1c-1.2,0.2-1.9,0.8-2.3,1.6   c-0.9,2,0.9,5.1,1.6,6.4c0.1,0.2,0.2,0.3,0.2,0.4c0.2,0.5,0.1,2.2,0,3.1c0,0,0,0,0,0c0,0.2-0.6,3.6-0.7,6.5   c-0.3-0.2-0.8-0.4-1.5-0.5c-0.8-0.1-1.4,0.1-1.8,0.5c-0.1,0.1-0.1,0.1-0.1,0.2c-0.4-0.4-1-0.7-2-0.7c-0.8,0-1.4,0.3-1.8,0.7   c-0.3-0.4-1-0.7-2-0.7c0,0-0.1,0-0.1,0c-0.1-0.1-0.2-0.3-0.3-0.4c-4.7-5-8.2-5.5-13.4-4.6c-2.8,0.4-12,2.7-12.8,12.2   c-0.3,3.5,0.5,7.4,1.2,9.7c0.1,0.2,0.2,0.6,0.3,0.9c0.2,0.9,0.3,1.3,0.5,1.5c0.2,1,0.6,2.4,1.2,3.3c0.3,0.5,0.6,0.9,1,1.3   c-0.2,0.6-0.9,2.5-1.1,4.3c-0.1,1.3-1.4,2.7-3,4.4c-0.8,0.9-1.7,1.8-2.5,2.9l-0.6-1.1c-0.3-0.6-1-1-1.7-1c-0.1,0-0.2,0-0.4,0   c-0.3,0.1-0.6,0.2-0.8,0.4h-0.5c-0.1,0-0.2,0-0.3,0.1L6.1,79.2C6,79.3,6,79.5,6,79.6s0.1,0.2,0.3,0.3L55,95c0,0,0.1,0,0.1,0   c0.1,0,0.2-0.1,0.3-0.1l20.5-25.2c0.1-0.1,0.1-0.2,0.1-0.4c0-0.1-0.1-0.2-0.3-0.3l-4.8-1.3c0.1-0.1,0.1-0.2,0.1-0.2   c0.8-0.5,7.3-5.3,7-11.5c-0.1-1.1-0.3-2.2-0.6-3.3l0.8-0.7c1.5-1.4,3.2-2.9,4.7-4c2-1.4,4.9-3.7,7.5-6.1c0.6-0.4,1.5-1.4,0.7-3   c-0.1-0.2-0.2-0.3-0.3-0.5c0,0,0,0,0,0l0.9-2.2c1-2.5-1.1-15.9-1.2-16.7v-2.9C90.4,15.7,91.3,14.4,92.1,13.3z M84.6,14.6   c-0.6-1.8,0.4-2.6,1.5-3.4c0.7-0.5,1.3-1,1.4-1.7c0-0.2,0.4-2.4,2.3-2.4c0.7,0,1.5,0.3,2.5,0.9c0.6,0.4,0.9,0.8,1,1.2   c0.2,1-0.8,2.3-1.7,3.6c-0.9,1.3-1.9,2.6-1.9,3.9v2.7c-0.2,0.1-0.7,0.3-1.5,0.3c-0.7,0-1.6-0.1-2.5-0.3   C85.6,18.6,85.4,17.1,84.6,14.6z M82.1,29.3c0.3,0,0.8,0.1,1.2,0.5c0.8,0.6,0.8,1.2,0.7,1.6c-0.7-0.7-1.4-1.4-2.2-2   C81.9,29.3,82,29.3,82.1,29.3z M88.6,37.6C88.6,37.6,88.6,37.6,88.6,37.6c-0.4-0.8-0.9-1.6-1.5-2.4c0,0,0.1,0,0.2,0   c0.2,0,0.5,0.1,1,0.8C88.8,36.8,88.7,37.3,88.6,37.6z M86.6,34.5c-0.6-0.8-1.2-1.6-1.9-2.4c0.1-0.1,0.3-0.1,0.4-0.1   c0.4,0,0.7,0.2,1.1,0.6C86.9,33.5,86.8,34.1,86.6,34.5z M78.9,27c0.3-0.1,0.8,0,1.3,0.3c0.9,0.6,1,1.2,0.9,1.5   c-0.8-0.6-1.6-1.2-2.5-1.7C78.7,27.1,78.8,27,78.9,27z M71.9,17.2c0.7,0.3,1.4,0.4,2.1,0.4c0.8,0,1.4-0.2,1.8-0.4   c0.8,3.8,1.3,6.2,1.5,7.6c-0.1-0.1-0.3-0.2-0.5-0.2c-0.7-0.3-1.4-0.3-1.9-0.1c-0.1,0-0.1,0.1-0.2,0.1c-0.3-0.5-0.8-1-1.8-1.2   c-0.8-0.2-1.4-0.1-1.8,0.2C71.4,21.1,71.8,18.3,71.9,17.2z M71.6,24.2c0.3-0.2,0.7-0.2,1.4-0.1c0.9,0.2,1.2,0.7,1.3,1.1   c0,0,0,0,0,0.1c-0.9-0.3-1.9-0.5-2.9-0.7C71.4,24.4,71.4,24.3,71.6,24.2z M75.1,25.5c0,0,0-0.1,0-0.1c0.1-0.1,0.2-0.1,0.3-0.2   c0.3-0.1,0.8-0.1,1.3,0.1c0.9,0.4,1.1,1,1.1,1.4C76.9,26.2,76,25.9,75.1,25.5z M70.1,7c0.3-0.6,0.8-1,1.7-1.2   c1-0.2,1.8,0.1,2.5,0.8c1.7,2,1.8,6.8,1.4,9.7c-0.2,0.1-0.9,0.4-1.8,0.4c-0.6,0-1.3-0.2-2-0.4c0.1-0.7,0.3-2.5-0.1-3.3   c0-0.1-0.1-0.2-0.3-0.5C71.1,11.6,69.4,8.7,70.1,7z M69,23.4c1,0.1,1.4,0.5,1.5,0.8c0,0,0,0.1,0,0.1c-0.7-0.1-1.4-0.2-2.1-0.2   c-0.3,0-0.6,0-0.9-0.1c0-0.1,0.1-0.2,0.2-0.3C68,23.5,68.4,23.4,69,23.4z M65.1,23.4c0.9,0,1.3,0.3,1.5,0.6c-1,0-1.9,0-2.8,0   c0-0.1,0-0.1,0.1-0.2C64.1,23.6,64.5,23.5,65.1,23.4z M62.9,24.1c-0.3,0-0.5,0.1-0.8,0.1c-0.1-0.2-0.3-0.5-0.4-0.7   C62.4,23.5,62.8,23.8,62.9,24.1z M35.4,30c0.8-9,9.5-11.1,12.2-11.5c5-0.8,8.3-0.3,12.7,4.4c1,1.1,2,3.3,2.6,5.8c0,0,0,0,0,0   c0,0,0,0,0,0c0.4,1.1,2,3.9,3.7,5.2c-0.7-0.1-1.5-0.5-2.1-1.2c-0.1-0.1-0.1-0.2-0.2-0.2c-0.1-0.2-0.4-0.2-0.5-0.1   c-0.2,0.1-0.2,0.4-0.1,0.5c0.1,0.1,0.2,0.2,0.2,0.3c0.6,0.7,2.1,2.4,3.5,2.9c-0.4,0.2-0.9,0.4-1.5,0.4c0,0,0,0,0,0   c-0.9,0-1.7-0.4-2.5-1.3c-0.2-0.2-0.4-0.2-0.6,0c-0.1,0.1-0.1,0.3-0.1,0.5c-0.3,0.1-0.6,0.2-0.9,0.4c-0.6-0.7-2.4-2.6-6.2-5   c0,0,0,0,0,0c0,0-0.1,0-0.1,0c0,0-0.1,0-0.1,0c0,0,0,0,0,0c0,0-0.1,0-0.1,0.1c0,0,0,0,0,0c-2.3,1.7-8,0-8,0c-0.2-0.1-0.4,0-0.4,0.2   c-0.1,0.2-0.1,0.3,0.1,0.5c0.7,0.7,2.6,1.5,3.9,2c-2.6,0.4-5.6-1.7-5.6-1.7c-0.1-0.1-0.3-0.1-0.4,0c-0.1,0.1-0.2,0.2-0.2,0.4   c0.1,1,0.8,1.7,1.3,2.1c-3.4,0.7-5.6-2.7-5.7-2.8c0,0,0,0,0,0c0,0,0,0,0,0c0,0,0,0,0,0c0,0,0,0-0.1,0c0,0,0,0-0.1,0c0,0,0,0-0.1,0   c0,0-0.1,0-0.1,0c0,0,0,0-0.1,0c0,0-0.1,0-0.1,0c0,0,0,0,0,0c0,0,0,0,0,0c0,0,0,0,0,0c-2.3,2.2-2.9,5.2-3,7.4   C35.8,36.9,35.1,33.3,35.4,30z M37.3,41.5c0-0.2,0-0.4,0-0.6c0-1.8,0-5.6,2.5-8.3c0.7,0.9,2.6,2.9,5.2,2.9c0.6,0,1.3-0.1,1.9-0.4   c0.1-0.1,0.2-0.2,0.3-0.4c0-0.2-0.1-0.3-0.2-0.4c0,0-0.7-0.3-1.2-1c1.5,0.8,4.2,1.9,6.5,0.8c0.1-0.1,0.2-0.2,0.2-0.4   c0-0.2-0.1-0.3-0.3-0.3c-0.5-0.2-1.6-0.5-2.6-0.9c1.9,0.3,4.4,0.4,5.9-0.6c4.4,2.8,6,4.9,6,4.9c0,0,0,0,0,0c0,0,0,0,0,0   c0.1,0.1,0.2,0.1,0.3,0.1c0.1,0,0.2,0,0.3-0.1c0.3-0.3,0.7-0.5,1-0.5c0.1,0,0.2-0.1,0.2-0.1c0.5,0.4,1.1,0.7,1.6,0.9   c0.4,0.4,0.7,1.1,0.7,1.4c0,2-1.3,3.1-2.7,3.3c0,0,0,0,0,0c0,0-0.1,0-0.1,0c0,0,0,0-0.1,0c0,0,0,0-0.1,0.1c0,0,0,0,0,0.1   c0,0,0,0,0,0c-1.1,3.5-4,6.1-8.5,7.5c-6.5,2-12.6,0.1-15.7-4.9C37.8,44,37.4,42.3,37.3,41.5z M32.7,58.9c0.8-1.1,1.7-2.1,2.6-3   c1.6-1.8,3-3.3,3.2-4.9c0.1-1.4,0.6-2.9,0.9-3.7c0.5,0.6,1.1,1,1.7,1.5c0,0.8,0.3,1.6,0.8,2.2c0.7,0.9,2,2.3,3.9,3.7l-0.6,1   c-0.6,1-5.2,5.4-7.4,7.4c-0.5-0.9-2-3-4.5-3.1L32.7,58.9C32.7,58.9,32.7,58.9,32.7,58.9z M67.9,58.6c-0.9,0.9-3.8,3.8-4.2,5.2   c0,0,0,0,0,0.1c0,0,0,0,0,0.1c0,0,0,0.7-1.3,1.5l-20.2-5.3c1.7-1.7,3.4-3.4,3.8-4.1l0.5-1c2.6,1.7,6.2,3.3,10.8,3.8   c0.9,0.1,1.9,0.1,2.9,0.1c2.6,0,5.2-0.3,7.5-0.9C67.7,58.3,67.8,58.5,67.9,58.6z M69.9,67.7C69.9,67.8,69.9,67.8,69.9,67.7   c-1,1.3-3.3,4.1-6.9,3.6c-1.7-0.2-2.7-0.9-2.9-1.9c-0.2-1.1,0.7-2.5,1.9-3c1.8-0.8,2.2-1.7,2.3-2.2c0.4-0.1,0.8-0.1,1.2-0.1   c2.9,0,4.3,2.4,4.6,3.1C70.1,67.4,70,67.5,69.9,67.7z M35.1,69.6c0.7-0.2,1.3-0.5,1.8-0.9l0.4,0.9c0,0,0.2,0.4,0.1,0.7   c-0.1,0.2-0.2,0.3-0.4,0.4c-0.9,0.4-1.3-0.1-1.3-0.2L35.1,69.6z M37.1,67.1c-0.1,0.2-0.3,0.4-0.4,0.6c0,0,0,0,0,0   c-0.5,0.6-1.3,1.1-2.3,1.2c0,0,0,0,0,0c0,0,0,0-0.1,0c-1,0.1-2.9,0.1-4.8-2c-1.6-1.7-0.6-3.6,0.4-4.9l1.5,3c0,0.1,0.1,0.1,0.2,0.2   c0,0,0.6,0.3,1.3,0.3c1.1,0,1.9-0.6,2.3-1.6c0-0.1,0-0.2,0-0.3l-1.5-2.7c2.4,0.5,3.6,3,3.6,3c0,0,0,0.1,0.1,0.1   C37.4,64,38.2,65,37.1,67.1z M29.8,57c0.5-0.1,0.9,0.1,1.2,0.6l3.6,6.2c-0.3,0.6-0.8,0.9-1.5,0.9c-0.4,0-0.7-0.1-0.9-0.1L29,58.6   c-0.2-0.3-0.2-0.7,0-1c0-0.1,0.1-0.2,0.2-0.2c0,0,0,0,0,0C29.3,57.2,29.5,57,29.8,57z M74.9,69.6L54.9,94.2L7.1,79.3l21-21.7   c-0.1,0.4,0,0.9,0.2,1.3l1.2,2.4c-1.9,2.3-2.1,4.5-0.6,6.2c1.4,1.5,3.1,2.3,4.8,2.3c0.2,0,0.4,0,0.5,0l0.1,0.2   c-1.4,0.3-3.3,1.6-3.6,2.8c-0.1,0.4-0.1,1.1,0.9,1.6c0.5,0.2,2,0.5,3.8,0.7c-0.2,0.2-0.3,0.4-0.4,0.7c-0.3,0.8,0.1,1.6,1.1,2.5   c2.5,2,6.5,3,11.8,3.1c0.4,1,1.3,1.9,2.5,2.5c0.1,0,0.1,0,0.2,0c0.1,0,0.3-0.1,0.4-0.2c0.1-0.2,0-0.4-0.2-0.5   c-0.9-0.4-1.6-1.1-2-1.8c2.2-0.1,5.2-0.6,5.4-2.7c0.1-0.9-0.3-1.4-0.7-1.6c-1.3-0.7-3.8,0.5-4.6,1.1c-1,0.8-1.2,1.7-1.1,2.4   c-5-0.1-8.8-1-11.2-2.9c-0.7-0.6-1-1.1-0.9-1.6c0.1-0.3,0.4-0.6,0.8-0.8c2.9,0.2,6.3,0.2,7.6-0.8c0.5-0.4,0.7-0.9,0.6-1.5   c0-0.2-0.2-0.3-0.4-0.3c-1.2-0.1-5.7,0.5-8,1.8c-2.1-0.2-4-0.5-4.4-0.7c-0.6-0.3-0.5-0.6-0.5-0.7c0.2-0.9,2.1-2.1,3.2-2.3L35,71   c0.2,0.3,0.7,0.6,1.4,0.6c0.3,0,0.6-0.1,0.9-0.2c0.5-0.2,0.8-0.6,0.9-0.9c0.2-0.7-0.1-1.3-0.1-1.3l-0.5-1.2   c0.1-0.2,0.3-0.4,0.4-0.6c0.9-1.9,0.6-3.1,0.3-3.6c0.6-0.5,1.9-1.7,3.2-3L61.3,66c-1.1,0.7-2.1,2.2-1.9,3.6   c0.1,0.8,0.7,2.2,3.5,2.6c0.3,0,0.6,0,0.8,0c0,0,0,0,0,0c3.3,0,5.6-2.4,6.6-3.8L74.9,69.6z M48.6,80.6c-0.1-0.6,0.2-1.2,0.8-1.7   c0.6-0.5,2.2-1.2,3.2-1.2c0.2,0,0.4,0,0.6,0.1c0.1,0.1,0.3,0.2,0.3,0.8C53.4,80.3,50.2,80.6,48.6,80.6z M38.1,74.6   c1.9-0.7,4.5-1.2,6-1.2c0,0.2-0.1,0.3-0.3,0.4C42.8,74.6,40.5,74.7,38.1,74.6z M70.8,66.7c-0.5-1-2.1-3.3-5.2-3.3   c-0.3,0-0.6,0-0.9,0.1c0.8-1.4,3-3.6,3.9-4.5c0.1-0.1,0.2-0.3,0.1-0.5c-0.1-0.1-5.8-10.4-3.3-13.7c0.7-0.9,1.5-1.5,2.4-1.7   c1.6-0.5,3.5,0.2,4.5,1.7c1.2,1.8,3.1,4.8,4.1,8c0,0,0,0,0,0c0.3,1.1,0.6,2.2,0.6,3.4C77.4,61.3,72.2,65.6,70.8,66.7z M82.3,47.4   c-1.5,1.1-3.2,2.7-4.8,4L77,51.9c-1.1-3.1-2.8-5.9-4-7.6c-1.2-1.8-3.4-2.6-5.4-2c-1.1,0.3-2,1-2.8,2c-2.3,2.9,0.9,10.1,2.5,13.1   c-3,0.7-6.7,1-10,0.7c-8.5-0.8-13.2-5.6-14.9-7.6c-0.3-0.3-0.4-0.7-0.5-1.1c2.1,1.3,4.6,1.9,7.3,1.9c1.7,0,3.5-0.3,5.3-0.8   c4.6-1.4,7.8-4.2,9-7.8c1.6-0.4,3.1-1.7,3.1-4c0-0.3-0.2-0.8-0.4-1.3c1.5-0.1,2.5-1.1,2.5-1.1c0.1-0.1,0.1-0.3,0.1-0.4   c-0.1-0.1-0.2-0.2-0.4-0.2c-0.6,0-1.2-0.4-1.9-0.9c1.1,0.2,2,0,2.1,0c0.2,0,0.3-0.3,0.3-0.5c0-0.2-0.2-0.3-0.5-0.3   c-1.3,0.2-4-3.6-4.8-5.5c-0.2-0.8-0.6-2.2-1.2-3.5c1.5-0.2,2.7-0.2,4.4-0.1c0,0,0.1,0,0.1,0c0,0,0.1,0,0.1,0c0.4,0,0.8,0,1.3,0.1   c0.8,0.1,1.6,0.2,2.3,0.3c0.1,0,0.1,0,0.2,0c0,0,0,0,0.1,0c13.1,2.3,18,14.5,18.7,16.4C87,43.9,84.2,46.1,82.3,47.4z M90.2,41   c-0.2-0.6-0.6-1.5-1.2-2.7c0,0,0,0,0,0c0.1,0,0.2,0,0.4,0c0.3,0.1,0.6,0.4,0.9,0.9C90.7,40.2,90.4,40.7,90.2,41z M90.9,36l-0.8,1.9   c-0.2-0.1-0.3-0.2-0.5-0.3c-0.1,0-0.1,0-0.2,0c0.1-0.5,0.1-1.2-0.6-2.1c-0.5-0.6-0.9-1-1.4-1.1c0.2-0.6,0.1-1.4-0.6-2.3   c-0.5-0.6-1.1-0.9-1.7-0.9c-0.1,0-0.2,0-0.3,0c0-0.6-0.2-1.3-1-2c-0.2-0.2-0.4-0.3-0.6-0.4c0.1-0.7,0.4-3.9,2.1-8.8   c1,0.2,1.9,0.4,2.7,0.4c0.8,0,1.3-0.1,1.6-0.2C90.3,24.4,91.6,34.1,90.9,36z"/><path d="M25.9,73.3c0.4-0.7,0.6-1.5,0.8-2c0-0.1,0-0.3-0.1-0.4c-0.1-0.1-0.2-0.2-0.3-0.2c-0.7,0-1.4,0.3-2,0.7   c-0.4-0.5-0.9-1.1-1.3-1.7c-0.1-0.1-0.2-0.2-0.4-0.2c-0.1,0-0.3,0.1-0.3,0.3c-0.3,1-0.4,2-0.5,2.9l-0.4,0.2c-1,0.5-2.1,0.9-3,1.5   c-0.1,0.1-0.2,0.2-0.2,0.4c0,0.1,0.1,0.3,0.3,0.3c0.9,0.3,2,0.5,2.9,0.7c0,0.2-0.1,0.3-0.1,0.5c-0.1,0.6-0.3,1.1-0.2,1.8   c0,0.2,0.2,0.3,0.3,0.4c0,0,0,0,0,0c0.2,0,0.3-0.1,0.4-0.3c0.3-0.8,1-1.5,1.7-2.1c0.5,0.1,1.1,0.2,1.6,0.3c0.3,0.1,0.6,0.2,0.9,0.3   c0.6,0.2,1.2,0.4,1.8,0.4c0.1,0,0.3-0.1,0.3-0.2c0.1-0.1,0.1-0.3,0-0.4C27.5,75.3,26.7,74.3,25.9,73.3z M21.5,75   c-0.7-0.1-1.3-0.2-2-0.4c0.7-0.4,1.4-0.7,2.1-1C21.6,74.1,21.6,74.6,21.5,75z M25.7,71.7c-0.1,0.3-0.2,0.6-0.4,1l-0.1-0.1   c-0.1-0.2-0.3-0.3-0.4-0.5C25.1,71.9,25.4,71.8,25.7,71.7z M22.8,70.9c0.3,0.3,0.5,0.7,0.7,0.9c0,0-0.1,0.1-0.1,0.1   c-0.3,0.2-0.6,0.3-0.8,0.5C22.7,71.9,22.7,71.4,22.8,70.9z M22.1,76.4c0-0.1,0.1-0.3,0.1-0.5l0.3,0C22.4,76.1,22.2,76.2,22.1,76.4z    M23.3,75.3l-1-0.1c0.1-0.5,0.1-1,0.2-1.5l0-0.3l0.2-0.1c0.4-0.2,0.7-0.4,1.1-0.6c0.1,0,0.2-0.1,0.3-0.2c0.2,0.2,0.3,0.4,0.5,0.6   l0.3,0.4c-0.2,0.3-0.3,0.5-0.5,0.8C24.1,74.6,23.7,74.9,23.3,75.3z M26.4,76c-0.3-0.1-0.7-0.3-1.1-0.3c-0.3-0.1-0.7-0.1-1-0.2   c0.3-0.2,0.5-0.5,0.7-0.7c0.2-0.2,0.3-0.4,0.5-0.6c0.5,0.7,1.1,1.4,1.6,2.1C26.8,76.1,26.6,76,26.4,76z"/></g></svg>
