<svg xmlns="http://www.w3.org/2000/svg" data-name="Layer 1" viewBox="0 0 128 160" x="0px" y="0px"><title>expand-black-fill-imageExtension art</title><path d="M55.24,100a1.94,1.94,0,0,1,2,1.45l3.18-1.11a4.87,4.87,0,0,0-5-3.56,5.16,5.16,0,0,0-3.86,1.36,4.63,4.63,0,0,0-1.35,3.41,4.39,4.39,0,0,0,.94,2.78q.93,1.17,4.22,1.91a3.38,3.38,0,0,1,1.2.46.88.88,0,0,1,.33.73c0,.59-.48.89-1.45.89a2.15,2.15,0,0,1-2.31-1.75l-3.56.74a5.26,5.26,0,0,0,5.64,4.42,5.85,5.85,0,0,0,4-1.36,4.93,4.93,0,0,0,.91-6,3.56,3.56,0,0,0-1.57-1.45,21.52,21.52,0,0,0-3.19-1,3,3,0,0,1-1.1-.42.76.76,0,0,1-.29-.63Q54,100,55.24,100Z"/><path d="M74.68,97H71.52l-2.31,9.29q-.15-.67-.36-1.38l-2-7.91h-4l4.06,14.51H70.8Z"/><path d="M82.73,100c1,0,1.53.75,1.72,2.26l3.71-.42a6.47,6.47,0,0,0-1.76-3.75,5,5,0,0,0-3.6-1.31A5.07,5.07,0,0,0,78.31,99a9.54,9.54,0,0,0-1.5,5.47,8.29,8.29,0,0,0,1.55,5.31,4.86,4.86,0,0,0,4,2A3.86,3.86,0,0,0,85.78,110a9.6,9.6,0,0,1,.51,1.52h1.87v-8.13H82.53v3.08H84.6a1.79,1.79,0,0,1-.5,1.34,1.59,1.59,0,0,1-1.18.49,1.79,1.79,0,0,1-1.47-.8,6.18,6.18,0,0,1-.6-3.33C80.85,101.37,81.47,100,82.73,100Z"/><path d="M113.5,71.55a.49.49,0,0,0-.49.5V78.3a.5.5,0,1,0,1,0V72.05A.5.5,0,0,0,113.5,71.55Z"/><path d="M113.5,84.07a.49.49,0,0,0-.49.49v3.53H52.88a.5.5,0,1,0,0,1H113v28.26a3.47,3.47,0,0,1-3.47,3.47H27.71a3.12,3.12,0,0,1-3.11-3.11V59.38a4.42,4.42,0,0,0-1.3-3.15L17.08,50a.48.48,0,0,0-.7,0,.5.5,0,0,0,0,.7l6.22,6.21a3.48,3.48,0,0,1,1,2.45V117.7a4.11,4.11,0,0,0,4.1,4.1h81.83a4.46,4.46,0,0,0,4.46-4.46V84.56A.49.49,0,0,0,113.5,84.07Z"/><path d="M114,30.34s0,0,0-.06a.64.64,0,0,0-.08-.19l0,0-1.47-1.75L95.39,8,94,6.38h0a.52.52,0,0,0-.22-.14h-.06l-.09,0H28.07a4.46,4.46,0,0,0-4.46,4.46V34.5a.5.5,0,0,0,1,0V10.66a3.47,3.47,0,0,1,3.47-3.47H93.15V30.38a.49.49,0,0,0,.49.49.5.5,0,0,0,.5-.49V8.06l1.25,1.49V24.31a4,4,0,0,0,4,4h11.73l1.32,1.57H99.9a.5.5,0,1,0,0,1H113V65.79a.5.5,0,0,0,1,0V30.38S114,30.35,114,30.34Z"/><path d="M23.61,42.4v9.08a.5.5,0,1,0,1,0V42.4a4.42,4.42,0,0,0-1.3-3.15L14.85,30.8a.49.49,0,1,0-.7.7L22.6,40A3.44,3.44,0,0,1,23.61,42.4Z"/><path d="M35,88.09a.5.5,0,1,0,0,1H46.62a.5.5,0,0,0,0-1Z"/><polygon points="76.69 55.52 64.09 69.83 34.13 35.8 34.13 86.06 103.57 86.06 76.69 55.52"/><polygon points="33.48 32.63 64.37 67.73 76.97 53.41 103.48 83.53 104.23 82.86 76.97 51.9 64.37 66.21 34.23 31.97 33.48 32.63"/><circle cx="57.79" cy="29.36" r="4.46" transform="translate(-3.83 49.46) rotate(-45)"/><path d="M64.13,29.36a6.34,6.34,0,1,0-6.34,6.33A6.35,6.35,0,0,0,64.13,29.36Zm-11.67,0a5.34,5.34,0,1,1,5.33,5.33A5.34,5.34,0,0,1,52.46,29.36Z"/><text x="0" y="143" fill="#000000" font-size="5px" font-weight="bold" font-family="'Helvetica Neue', Helvetica, Arial-Unicode, Arial, Sans-serif">Created by Heztasia</text><text x="0" y="148" fill="#000000" font-size="5px" font-weight="bold" font-family="'Helvetica Neue', Helvetica, Arial-Unicode, Arial, Sans-serif">from the Noun Project</text></svg>