<svg xmlns="http://www.w3.org/2000/svg" xmlns:xlink="http://www.w3.org/1999/xlink" version="1.1" x="0px" y="0px" viewBox="0 0 100 125" enable-background="new 0 0 100 100" xml:space="preserve"><path d="M96.7,37.1c0.2-1.1-0.2-2.3-1.3-3.1L71.8,14.2c-1.3-1.1-3.3-1.7-5.4-1.7c-1.2,0-2.3,0.2-3.4,0.5L8.1,32.3  c-1.9,0.7-3.1,1.8-3.3,3.2c-0.2,1.1,0.3,2.3,1.3,3.1l23.6,19.8c1.3,1.1,3.3,1.7,5.4,1.7c1.2,0,2.3-0.2,3.4-0.5l54.9-19.2  C95.2,39.7,96.5,38.5,96.7,37.1 M98.3,41.8l0-2c-0.9,1.3-2.2,2.3-4,3L39.4,62.1c-1.3,0.5-2.8,0.7-4.3,0.7c-2.8,0-5.4-0.8-7.1-2.3  L4.4,40.7c-0.5-0.4-0.9-0.8-1.2-1.3v0.8c0,0,0,0,0,0l0,1c0,0.8,0.4,1.7,1.3,2.4l23.6,19.8c2.5,2.1,7.6,2.7,11.5,1.3l54.9-19.2  C96.9,44.7,98.2,43.3,98.3,41.8 M98.3,47l0-3.1c-0.1,1.4-1.4,2.9-3.8,3.7L39.6,66.8c-3.9,1.4-9,0.8-11.5-1.3L4.6,45.7  c-0.9-0.8-1.3-1.6-1.3-2.4l0-2.9l0,5c0,0,0,0,0,0l0,1c0,0.8,0.4,1.7,1.3,2.4l23.6,19.8c2.5,2.1,7.6,2.7,11.5,1.3l54.9-19.2  C96.9,49.9,98.3,48.4,98.3,47 M98.3,52.1l0,0.7l0-3.9c0,1.5-1.4,2.9-3.8,3.7L39.6,72c-3.9,1.4-9,0.8-11.5-1.3L4.6,50.9  c-0.9-0.8-1.3-1.6-1.3-2.4l0-2.1l0,4.2c0,0,0,0,0,0l0,1c0,0.8,0.4,1.7,1.3,2.4l23.6,19.8c2.5,2.1,7.6,2.7,11.5,1.3l54.9-19.2  C97,55,98.3,53.6,98.3,52.1 M98.3,57.3l0,1.6l0-4.8c0,1.5-1.4,2.9-3.8,3.8L39.6,77.1c-3.9,1.4-9,0.8-11.5-1.3L4.6,56  c-0.9-0.7-1.3-1.6-1.3-2.4l0-1.2l0,3.6l0,0.7c0,0.8,0.4,1.7,1.3,2.4l23.6,19.8c2.5,2.1,7.6,2.7,11.5,1.3L94.5,61  C97,60.2,98.3,58.8,98.3,57.3 M98.3,61.6l0-2.3c0,1.5-1.3,2.9-3.8,3.8L39.6,82.3c-3.9,1.4-9,0.8-11.5-1.3L4.6,61.2  c-0.9-0.8-1.3-1.6-1.3-2.4l0-0.4l0,2.7c0,0.8,0.4,1.7,1.3,2.4l23.6,19.8c2.5,2.1,7.6,2.7,11.5,1.3l54.9-19.2  C97,64.5,98.3,63,98.3,61.6"/></svg>
