<svg xmlns="http://www.w3.org/2000/svg" data-name="Слой 1" viewBox="0 0 100 125" x="0px" y="0px"><title>window</title><g><path d="M94.57391,84.19386c-0.02854-3.22654-.00451-6.45534-0.01112-9.68289q-0.01209-5.89721-.036-11.794c-0.002-.68578.01326-1.3723,0.00494-2.05772-0.02314-1.907-.072-3.8132-0.06233-5.72112a1.18017,1.18017,0,0,1,.43609-0.787,3.42021,3.42021,0,0,0,1.31056-3.5568A1.44281,1.44281,0,0,0,94.955,49.277a0.6983,0.6983,0,0,1-.473-0.50539c-0.09779-1.36607-.171-2.73662-0.18931-4.10878-0.0234-1.75529.02629-3.514,0.01915-5.27019-0.01324-3.26086-.05775-6.52055-0.06253-9.78169-0.00193-1.3274.07187-2.65744,0.10027-3.98611A33.79812,33.79812,0,0,0,94.3805,21.651c-0.12585-1.28752.08968-2.55776,0.07311-3.83724-0.03767-2.91022.10985-5.82975,0.20845-8.7455a8.0997,8.0997,0,0,1,.2823-1.003,2.18614,2.18614,0,0,0,.05956-1.13086,0.87835,0.87835,0,0,0-1.1949-.5031,2.19282,2.19282,0,0,1-.84482-0.14751,2.206,2.206,0,0,0-.96741-0.05688,16.55069,16.55069,0,0,0-1.89037.896C88.33113,8.04034,86.5902,9.035,84.7825,9.87766c-2.21191,1.031-4.47309,1.95084-6.72242,2.8945a5.00865,5.00865,0,0,1-3.60633.52417,10.94414,10.94414,0,0,0-3.37308-.32163c-1.98429.03535-3.97232,0.2738-5.95617,0.30172-4.05585.05705-8.11017,0.03623-12.16477,0.03732q-5.161.0014-10.32122-.0208c-3.51326-.01357-7.0267-0.025-10.53839-0.07225a11.51911,11.51911,0,0,1-1.52225-.30809,2.20377,2.20377,0,0,0-.6128.051c-0.433.10651-.70628,0.1882-0.98422,0.23776a1.39412,1.39412,0,0,1-.72393.05719c-1.75553-.83478-3.50319-1.68649-5.23366-2.56965-3.169-1.61733-6.33893-3.234-9.47872-4.90446A21.47743,21.47743,0,0,1,10.25731,3.693a2.02827,2.02827,0,0,0-2.28107-.54612,5.10643,5.10643,0,0,1-1.28041.1739c-0.25071.01716-.50578-0.07615-0.75554-0.05463A1.0785,1.0785,0,0,0,5.202,4.70059a1.91958,1.91958,0,0,1,.1924.78261c0.031,0.9223.0166,1.84761,0.03809,2.77069,0.05475,2.35212.12869,4.70317,0.17682,7.05565,0.0274,1.3392-.0192,2.68332.03522,4.02008,0.10428,2.56127.26578,5.1182,0.3853,7.67841,0.05347,1.14547.04861,2.29562,0.09521,3.44178,0.1104,2.715.24026,5.42855,0.35358,8.14335,0.08585,2.05662.169,4.11354,0.23307,6.17169,0.0448,1.43876.05542,2.87979,0.08373,4.45444-1.43328-.50495-2.27853.25053-2.85963,1.32625a1.87685,1.87685,0,0,0,.38786,2.392,2.27726,2.27726,0,0,0,2.586.71883c0.02584,0.37882.06088,0.71977,0.07024,1.06233,0.02768,1.01195.031,2.02559,0.06942,3.03669,0.10371,2.73085.24993,5.45893,0.32416,8.19152,0.07531,2.77235.0529,5.55081,0.1321,8.32287,0.07619,2.6668.24861,5.32735,0.34022,7.99333,0.095,2.76566.17629,5.53317,0.19653,8.3027,0.00791,1.08306-.18391,2.17348-0.24333,3.26136a0.846,0.846,0,0,0,.26791.63446q1.60731,1.22659,3.26651,2.38589c0.44434,0.31247,1.20961.13034,1.20986-.28261a1.5773,1.5773,0,0,1,1.25636-1.46805c2.6512-1.2051,5.305-2.40436,7.94891-3.62625,3.41144-1.57658,6.81276-3.17651,10.22435-4.75271a2.21739,2.21739,0,0,1,.81934-0.16718c0.66323-.02865,1.327-0.02567,1.99016-0.02536,6.43217,0.003,12.86391.01912,19.29663,0.00527,1.7258-.00372,3.45678-0.14937,5.18133-0.13543,2.03736,0.01648,4.0698.14318,6.10538,0.20663a18.97878,18.97878,0,0,1,3.12516.084,24.27283,24.27283,0,0,1,3.56548,1.19789c2.7827,1.03644,5.5556,2.09731,8.3331,3.14673,3.49787,1.32161,6.9994,2.63432,10.48845,3.97723a1.16592,1.16592,0,0,1,.6283.63344,0.9415,0.9415,0,0,0,1.29084.7142c0.19324-.06805.37225-0.17929,0.56359-0.25469a3.08,3.08,0,0,0,1.36227-.57559,3.0928,3.0928,0,0,0,.01339-1.48589C94.679,90.75749,94.603,87.4767,94.57391,84.19386ZM92.29629,16.56118c0.05754-2.30765.13559-4.61551,0.1937-6.92315a6.51289,6.51289,0,0,1-.01631-1.28215,2.05111,2.05111,0,0,1,.63317-0.67236,5.68125,5.68125,0,0,1,.18157.69559,18.65933,18.65933,0,0,1,.26866,2.44726,2.601,2.601,0,0,1-.51017,1.11431,4.74592,4.74592,0,0,1-.53317.63594L93.56222,13.032c0.36136,1.17512.18126,1.6896-1.1336,2.545l1.05747,0.64238c-0.01307.4656-.037,1.12208-0.04823,1.77835a1.36973,1.36973,0,0,1-.709,1.35633,0.79465,0.79465,0,0,0-.23492.47729,8.62392,8.62392,0,0,0,.96808.51012l0.13994,6.26768-0.08922.02527-0.26719-.70551-0.22974.03074L92.8757,27.04174a0.69423,0.69423,0,0,1-.81454-0.82108C92.16274,23.00076,92.216,19.78105,92.29629,16.56118ZM6.62,5.268a1.039,1.039,0,0,1,.53051-0.7637,0.7801,0.7801,0,0,1,1.00709.72907c0.02325,0.5267.176,1.04208,0.226,1.56836a0.63946,0.63946,0,0,1-.1843.51756,0.58973,0.58973,0,0,1-.53111-0.1096c-0.68448-.60583-0.6751-0.61636-0.998.24048A20.14817,20.14817,0,0,1,6.62,5.268ZM6.6958,12.61565a1.198,1.198,0,0,1-.05512,1.9649ZM6.79825,52.65206A1.144,1.144,0,0,1,6.608,51.0384l0.23548,0.00146ZM9.29391,91.38992L10.57738,91.2c-0.4687-.53034-0.64506-0.55436-1.43086-0.25748-0.03984-.48229-0.07884-0.96027-0.11893-1.4381-0.03843-.45815-0.15652-0.94825.57241-1.00523a0.47677,0.47677,0,0,0,.26244-0.32,0.33531,0.33531,0,0,0-.1946-0.27317c-0.78157.01624-.60918-0.5859-0.65239-1.03-0.03858-.3967-0.03244-0.79929-0.046-1.19671l1.13873-.56c-1.78392-.33093-0.94569-1.58246-1.26368-2.485a1.89771,1.89771,0,0,0,.62322-0.05114,3.46757,3.46757,0,0,0,.55286-0.45179,1.31348,1.31348,0,0,0-.55019-0.42041c-0.92349.03669-.70589-0.5282-0.58909-1.10206L10.068,80.5l0.09838-.23391a1.69059,1.69059,0,0,0-.72-0.37737c-0.7285.05686-.7676-0.39215-0.79083-0.908-0.05317-1.18077-.14989-2.36-0.14125-3.54233A2.415,2.415,0,0,1,9.07857,74.538c-1.082-.4627-0.43846-1.52264-0.5379-2.36806A0.7859,0.7859,0,0,1,8.77534,71.633c0.35743-.36636.51293-0.61595-0.07436-0.90986a1.053,1.053,0,0,1,.04748-1.53673c-0.14818-.80313-0.26439-1.45932-0.39131-2.11306a0.72868,0.72868,0,0,1,.72916-0.92691,1.7437,1.7437,0,0,0,.55683-0.45657,1.898,1.898,0,0,0-.66382-0.08417c-0.49824.11985-.7407,0.00453-0.71047-0.53754a2.726,2.726,0,0,0-.036-0.76116c-0.10146-.43348-0.09744-0.744.46862-0.82655a1.144,1.144,0,0,0,.39542-0.39538c-0.13549-.08882-0.26819-0.18225-0.40824-0.26349-0.03914-.02271-0.11751.01087-0.14826-0.01555-0.69348-.59574-0.17185-1.41309-0.29989-2.11542-0.08492-.46583.27056-0.50908,0.63951-0.549a3.65619,3.65619,0,0,0,.79134-0.27242l-0.02623-.342-1.407-.0829c-0.05746-.99358-0.13153-2.11311-0.185-3.2343-0.09434-1.9782-.17562-3.95746-0.26341-5.93619a17.97753,17.97753,0,0,1-.07649-2.24555,4.106,4.106,0,0,1,.56455-1.21442c-1.13809-.57958-0.4298-1.73278-0.58836-2.6417a4.40926,4.40926,0,0,1,.36192-1.47554,0.56717,0.56717,0,0,0-.0586-0.45448,1.07243,1.07243,0,0,1-.403-1.32966,1.13815,1.13815,0,0,1,.51133-0.57474,7.57608,7.57608,0,0,1,.71316-0.35557A0.58863,0.58863,0,0,0,8.711,39.67051a6.19369,6.19369,0,0,0-.76545.06608c-0.07354.00782-.14716,0.01447-0.30519,0.02989a5.99981,5.99981,0,0,1-.15583-0.86914c-0.08584-2.45068-.13853-4.9038-0.23706-7.35348C7.1333,28.70654,6.9821,25.872,6.84979,23.036a1.0253,1.0253,0,0,1,.02752-0.52817,0.83953,0.83953,0,0,1,.5-0.41354,0.59354,0.59354,0,0,1,.45278.3874c-0.08514.73214,0.45364,1.57961-.43537,2.18973a0.52857,0.52857,0,0,0,.0311.45491,1.22075,1.22075,0,0,1,.61253,1.32888,1.16192,1.16192,0,0,0,.25749.41837c0.05578-1.98813.10872-3.87528,0.16224-5.78324-1.63339.29357-1.63142,0.29341-1.698-1.21021-0.03579-.8076-0.07972-1.61457-0.12234-2.46933a6.82078,6.82078,0,0,0,.92881-0.12375,0.44449,0.44449,0,0,0,.27253-0.30518,0.53031,0.53031,0,0,0-.26665-0.37332c-1.08941.18273-.86749-0.58215-0.86535-1.24237L7.30862,15.187l0.18176,0.99579L7.61766,16.2241a1.92073,1.92073,0,0,0,.198-0.60043c-0.0219-.8125-0.082-1.62274-0.13522-2.43314-0.04867-.74187-0.12085-1.48176-0.14974-2.225a3.87585,3.87585,0,0,1,.172-0.55317,3.60284,3.60284,0,0,0,.01409-0.741A10.154,10.154,0,0,1,7.621,8.53076a0.64637,0.64637,0,0,1,.45133-0.26036,0.99427,0.99427,0,0,1,.43792.58791C8.562,10.64064,8.54972,12.427,8.5903,14.21017c0.02308,1.01391.1909,2.02473,0.14913,3.036-0.07954,1.92572.17273,3.81915,0.23678,5.7298,0.12784,3.81349.287,7.62486,0.41138,11.43858,0.08355,2.56211.10719,5.12831,0.19787,7.68985,0.12668,3.57878.31141,7.15351,0.43317,10.73259,0.11766,3.45914.17933,6.922,0.28,10.38238,0.07878,2.7082.18632,5.41455,0.26839,8.12253a63.12414,63.12414,0,0,1,.10915,6.37435c-0.0971,1.36655.23037,2.64451,0.20928,3.97493-0.02179,1.37334-.0523,2.74833-0.016,4.11873,0.059,2.22836.17134,4.45342,0.25438,6.68036a5.19567,5.19567,0,0,1-.05795.64131C9.20383,93.26923,8.90878,92.965,9.29391,91.38992Zm0.32591,2.79922,0.00295-.181a4.03206,4.03206,0,0,1,1.40759-.12541,3.37285,3.37285,0,0,1,.19566,1.308C10.56816,94.78055,10.094,94.48485,9.61981,94.18913ZM30.23337,85.5317c-0.80864-.12247-1.07511.08838-1.06664,0.873a0.94879,0.94879,0,0,1-.8293.85384c-0.78911.43018-1.60673,0.80956-2.42789,1.173-1.18254.52345-2.38691,0.99448-3.56595,1.52585-0.92921.41879-1.832,0.89975-2.75045,1.3446-2.06581,1.00059-4.13127,2.0021-6.20442,2.98633a6.9024,6.9024,0,0,1-1.0359.29711c-0.11045-1.6439-.2476-3.19942-0.31121-4.7605-0.07241-1.77686-.07268-3.55908-0.11609-5.33828-0.05386-2.20782-.12575-4.41459-0.17911-6.62245-0.0769-3.18176-.12894-6.365-0.221-9.5458-0.05781-1.99723-.19092-3.98961-0.252-5.98666-0.08833-2.88788-.12838-5.77888-0.21426-8.66691-0.0868-2.91927-.20789-5.8363-0.30715-8.75478-0.06976-2.05055-.11327-4.103-0.19613-6.1525-0.06852-1.69483-.20031-3.385-0.2632-5.08019-0.09386-2.53047-.146-5.06391-0.22669-7.59537-0.07674-2.40741-.1784-4.81314-0.2489-7.22093Q9.70449,15.017,9.633,11.1702q-0.04507-2.48-.0186-4.96345A7.05037,7.05037,0,0,1,9.88462,4.935c1.40741,0.75,2.67884,1.44,3.96178,2.10894C17.40257,8.898,20.976,10.7209,24.517,12.60236c1.58566,0.84253,3.12076,1.77851,4.65113,2.71584a1.17045,1.17045,0,0,1,.49165.80672q0.2237,3.41963.35329,6.84856c0.11086,2.88834.20485,5.77827,0.264,8.66986,0.01944,0.95128-.15965,1.91424-0.13012,2.86409,0.06209,1.99744.23909,3.98731,0.29983,5.98482,0.06019,1.97944.01068,3.96585,0.05335,5.9467,0.08,3.713.21392,7.42309,0.27943,11.13679,0.0264,1.49709-.10261,3.0018-0.09915,4.50074,0.00475,2.0554.06947,4.10854,0.10627,6.16277,0.04005,2.23659.08272,4.47306,0.11441,6.71006,0.02227,1.57219.01209,3.14608,0.04557,4.71757q0.05374,2.52155.16894,5.03945C31.14745,85.38182,30.94584,85.6396,30.23337,85.5317Zm37.99135,0.07213c-2.48609.00295-4.973,0.03189-7.45914,0.0354-0.63584.0009-1.26877-.08266-1.90464-0.08383-1.6683-.00305-3.3375.01792-4.9546,0.029,0.13345-.09592.3646-0.14441,0.51406-0.26106a4.12333,4.12333,0,0,1-.56417.05575,4.22965,4.22965,0,0,1-1.11252.17624c-0.09676.00189-.19211-0.00035-0.28677-0.00453-0.03.0445-.05933,0.09035-0.08762,0.13806-1.769.01209-3.5384,0.03679-5.30678,0.03294-2.00216-.00437-4.00312-0.04044-6.00505-0.05159-2.16187-.012-4.32429-0.01033-6.4864-0.0166-0.55638-.00161-1.11358.00342-1.66838-0.02054a0.71089,0.71089,0,0,1-.697-0.81117q-0.09122-2.32326-.175-4.64706c-0.07305-1.981-.16957-3.96066-0.21016-5.94345-0.04171-2.037-.01034-4.078-0.04319-6.11557-0.0459-2.84626-.1282-5.69065-0.183-8.53649-0.06679-3.46527-.10726-6.932-0.18433-10.39663-0.11612-5.2208-.27118-10.43942-0.37409-15.66091-0.03952-2.00521.05109-4.01734,0.02262-6.02339-0.02524-1.77987-.17864-3.55377-0.19176-5.33385-0.01256-1.70353.08267-3.41162,0.13245-5.18578,1.16482-.008,2.21619-0.01626,3.26749-0.02209q3.05719-.017,6.11433-0.0317c2.51647-.01264,5.03252-0.00416,7.5495-0.04334,2.41021-.03753,4.82315-0.17508,7.23158-0.1746,2.17714,0.00043,4.34838.15607,6.52486,0.19161,2.21533,0.03621,4.43346.029,6.65127-.00118a0.83974,0.83974,0,0,1,1.00758.97943c0.00939,3.319.064,6.63647,0.04788,9.95615-0.01146,2.35851-.11169,4.71966-0.16911,7.0796-0.07217,2.96611-.14748,5.93226-0.20927,8.89825-0.04582,2.19947-.06371,4.39858-0.10986,6.59806-0.04217,2.01051-.211,4.02954-0.125,6.02934,0.06435,1.49663-.25977,2.96558-0.20836,4.44877,0.02685,0.7743.02169,1.551,0.02172,2.32691a3.34248,3.34248,0,0,0,.38943.78357c0.45744,1.652.08674,3.31982,0.13014,4.96677,0.08081,3.06667-.01012,6.14407-0.04169,9.21731-0.023,2.24172-.07958,4.48433-0.08955,6.72559A0.609,0.609,0,0,1,68.22472,85.60383ZM58.27209,15.92912c-1.44306.0461-2.88536-.05349-4.3288-0.02049-2.86133.06542-5.72472,0.23239-8.5845,0.255-3.52676.02785-7.05159-.032-10.575-0.09579a2.70756,2.70756,0,0,1-1.79835-.55138,8.20218,8.20218,0,0,0-2.29038-.90114,1.07345,1.07345,0,0,1-.50481-0.36232c14.38216,0.34864,28.79657-.3774,43.15849.203L73.39755,14.721a3.50174,3.50174,0,0,1-1.48478.4633,3.51238,3.51238,0,0,0-1.60213.22465C66.30359,16.28255,62.28493,15.80093,58.27209,15.92912Zm33.26007,75.3383c-0.01876.95108-.05186,1.90237-0.08095,2.939-2.54021-.923-5.08405-1.83553-7.61847-2.77174q-3.35826-1.24055-6.69916-2.52455-2.8121-1.07433-5.60759-2.18868a0.74831,0.74831,0,0,1-.46217-0.41647,0.72085,0.72085,0,0,0-.64668-0.78186,0.63526,0.63526,0,0,1-.24629-0.50136c-0.04258-1.34131-.05694-2.68451-0.07892-4.02717-0.02747-1.67842-.06478-3.35642-0.07729-5.03548-0.01117-1.4984.0175-2.99847,0.00725-4.49691-0.01377-2.01252-.07386-4.02338-0.06619-6.03644,0.0075-1.9659.10207-3.93451,0.11011-5.90043,0.01178-2.88285-.05255-5.76357-0.02333-8.64674,0.0312-3.07837.17665-6.15977,0.1941-9.23756,0.02383-4.20445-.06111-8.40575-0.03273-12.61025,0.02031-3.00872.14183-6.02049,0.23633-9.031,0.0263-.83766.10551-1.6763,0.18812-2.51272a0.71763,0.71763,0,0,1,.24872-0.48959,16.49145,16.49145,0,0,1,1.63563-.86834q2.09308-.95881,4.2054-1.87253c0.79983-.34488,1.61929-0.64074,2.42865-0.9621,2.04575-.81227,4.109-1.5813,6.13038-2.45414,1.64039-.70828,3.231-1.5405,4.842-2.32158,0.34005-.16489.67247-0.34646,1.17113-0.60459,0.0349,1.51587.09444,2.835,0.08995,4.1562-0.0112,3.30917-.05788,6.61941-0.07644,9.92883-0.00633,1.1298.04409,2.25787,0.04177,3.3876-0.00573,2.798-.03545,5.59685-0.03977,8.39483Q91.298,38.7615,91.317,43.74042c0.00864,3.389.00937,6.77834,0.04137,10.16629,0.04191,4.43715.12314,8.87257,0.162,13.30983,0.01363,1.55562-.06564,3.11506-0.07085,4.67177-0.00585,1.74994.02053,3.49892,0.03917,5.248,0.035,3.28286.08581,6.565,0.10677,9.84847C91.60459,88.4111,91.56033,89.83973,91.53217,91.26742Zm0.667-43.08005c0.082-2.34126.05248-4.68361,0.02471-7.02349-0.03491-2.939-.12316-5.8754-0.16833-8.81393-0.021-1.36924.00126-2.74076,0.01438-4.11151a4.05284,4.05284,0,0,1,.10762-0.61818c1.88254,1.14094,1.24046,3.02235,1.4459,4.70316a1.79554,1.79554,0,0,0-.39549-0.33084,6.42594,6.42594,0,0,0-.752-0.2024c0.03373,0.27218.08252,0.543,0.09783,0.81683a13.73122,13.73122,0,0,1,.04021,1.4184c-0.05665,1.18842-.16138,2.37646-0.20095,3.56459a0.65093,0.65093,0,0,0,.35016.536,0.84939,0.84939,0,0,0,.581-0.36005,2.03788,2.03788,0,0,1,.2895-0.58408q-0.13154,4.689-.2628,9.368l-0.48211.18674a1.86675,1.86675,0,0,0,.252.51042,2.23526,2.23526,0,0,1,.32752,2.16507,3.21576,3.21576,0,0,0-.16288.89355C92.30656,49.94422,92.16407,49.18892,92.19915,48.18737ZM93.56987,32.6067L93.4617,36.46262C92.896,34.00679,92.91793,33.13783,93.56987,32.6067ZM92.92552,66.67233a0.83438,0.83438,0,0,1-.5878-1.11307c0.03294-.43209.02858-0.86572,0.04195-1.34241l0.70871-.15447,0.01112-.15329-0.67432-.23186c-0.05364-2.49755-.10746-5.00411-0.161-7.49572l0.9755-.32882a0.77321,0.77321,0,0,0-.09518-0.24931c-0.86286-.17147-0.87984-0.77986-0.85349-1.51629,0.04183-1.16819-.03407-2.33652-0.06168-3.5731,0.41655,0.06423.86941,0.46869,1.07726-.18767a5.51588,5.51588,0,0,1,.33774,1.32009c0.0222,2.18762-.01961,4.37805-0.02465,6.567-0.00513,2.23151.00406,4.46254,0.011,6.69362,0.00514,1.65454.01812,3.30878,0.024,4.9633,0.00107,0.29639-.01531.59345-0.02361,0.88935l-1.05679.11c-0.08855-1.20172-.17682-2.40332-0.27234-3.70411l1.05468,0.27225A1.94291,1.94291,0,0,0,92.92552,66.67233Zm0.34424,8.30746c-0.86176.00958-.8951-0.5914-0.866-1.21525,0.04489-.962.113-1.92373,0.17122-2.88556l0-.00068,1.10828,0.90341c0.00032,2.91505.00067,6.06726,0.001,9.272l-1.3748-.11348c0.04566-1.62787.07921-3.26928,0.15579-4.91016a1.05534,1.05534,0,0,1,.41425-0.51845,3.09057,3.09057,0,0,1,.52928-0.30914A0.6204,0.6204,0,0,0,93.26976,74.9798ZM92.48255,87.17434c-0.02089-1.52124-.02427-3.04334-0.02966-4.56528-0.00132-.3748.01929-0.75045,0.03055-1.15177,1.35629,0.49248,1.47214.78031,1.13,2.65171q-0.48859.126-.9783,0.25238l-0.04238.27959L93.673,84.98869c-0.32014.733,0.88259,1.86168-.97916,2.45719,1.0021,0.29029,1.19686.829,1.00034,1.49912a2.74259,2.74259,0,0,1-.50334.768,5.82888,5.82888,0,0,1-.40743.4472c0.19221,0.04829.38325,0.10147,0.57726,0.14234a2.15165,2.15165,0,0,0,.33745.00024l-0.0629,2.24229c-0.6593.01357-1.11779-.05239-1.08378-0.94537C92.60765,90.12487,92.50279,88.65,92.48255,87.17434Zm1.21961,7.14185a1.93954,1.93954,0,0,1-.39563.59582,4.79957,4.79957,0,0,1-.5723-0.49854,0.74014,0.74014,0,0,1-.12255-0.43057c-0.01138-.30234.01109-0.60714,0.02139-0.97431C93.74983,93.20288,93.8845,93.35263,93.70216,94.31619Z"/><path d="M90.18052,56.96387q0.15508,2.92514.31115,5.85021c0.02473,0.45608.08884,0.91018,0.08753,1.3667a0.84735,0.84735,0,0,1-1.23179.86329c-2.57959-.73819-5.1467-1.52009-7.74615-2.19008-2.579-.66471-5.18975-1.22074-7.79027-1.81019-0.73225-.166-1.47521-0.2932-2.21745-0.41733a1.1238,1.1238,0,0,1-.96137-1.30328c0.09327-1.26951.224-2.53911,0.26736-3.80862,0.04913-1.44-.00751-2.87974.02931-4.32006,0.09339-3.6536.22772-7.30761,0.31789-10.96115,0.06838-2.77092.08925-5.54134,0.14016-8.31212,0.04051-2.20487.09979-4.41008,0.1401-6.61495,0.01858-1.01633.06011-2.03691-.00262-3.04648a15.0946,15.0946,0,0,0-.39271-1.652,1.45,1.45,0,0,1,.04049-0.97215,1.68966,1.68966,0,0,1,.93209-0.40571,12.11631,12.11631,0,0,0,1.842-.36308c3.84178-1.58887,7.66425-3.228,11.49448-4.847,1.067-.45106,2.14379-0.87783,3.20415-1.34476a1.16152,1.16152,0,0,0,.41395-0.46365c0.23269-.373.57107-0.64529,0.93579-0.38579a1.45239,1.45239,0,0,1,.6405.96748c-0.0098.929-.2689,1.863-0.29031,2.79342Q90.2242,20.8279,90.19962,26.068c-0.01859,3.33122.022,6.66064,0.01736,9.9915-0.006,4.32618-.05408,8.6539-0.038,12.97917,0.00788,2.11333.126,4.22228,0.18069,6.334,0.01362,0.5268-.0254,1.05679-0.04022,1.58532ZM71.56279,54.59956a5.03683,5.03683,0,0,0-.27282,3.137l0.34771-.00519q-0.043-1.56155-.08575-3.12323l0.19548-2.32355L71.337,52.292c0.14536,0.761-.2095,1.52888.15545,2.28567A0.13837,0.13837,0,0,0,71.56279,54.59956Zm17.866,9.23684a4.25017,4.25017,0,0,1-.23006-0.9508A48.61092,48.61092,0,0,0,89.157,56.469a39.89676,39.89676,0,0,1,.07354-5.0405c0.02253-2.04833.01092-4.09585,0.00974-6.14356a2.22026,2.22026,0,0,0-.0588-0.37187A6.69457,6.69457,0,0,1,89.162,42.389a2.02847,2.02847,0,0,0-.14462-0.72077,1.96,1.96,0,0,1-.09171-0.5741,12.64182,12.64182,0,0,0,.21563-1.527c-0.01212-.69283-0.21663-1.37714-0.21314-2.06886,0.00636-1.26524.13074-2.53356,0.15777-3.8,0.02983-1.39828-.00421-2.79558.00778-4.1938,0.01086-1.26627.06583-2.53385,0.06488-3.79957-0.00081-1.087-.08442-2.17133-0.07486-3.25832,0.01226-1.39378.10026-2.78944,0.12-4.18354,0.0178-1.258-.022-2.5147-0.01726-3.77254,0.00229-.609-0.22879-0.79391-0.78924-0.55067-0.44976.19522-.87774,0.44684-1.33237,0.627-2.64457,1.04779-5.302,2.061-7.93945,3.12754-1.95.7885-3.88243,1.62579-5.80685,2.47955a1.26462,1.26462,0,0,0-.71412.71039c-0.14917,1.47218-.2655,2.95274-0.273,4.42689-0.01565,3.07272.0537,6.14277,0.06821,9.21474,0.00818,1.733-.054,3.469-0.02985,5.201,0.03882,2.78526.13246,5.56781,0.185,8.35245,0.05177,2.74354.06211,5.48939,0.13,8.23189,0.02685,1.08429.16,2.16223,0.25572,3.38263C78.27913,61.127,83.76441,62.61945,89.42877,63.8364Z"/><path d="M71.23961,61.67911c1.11413,0.30089,2.1336.57262,3.15083,0.85167,2.34871,0.64425,4.68448,1.334,7.04805,1.92547,1.97656,0.4946,3.98874.86219,5.9748,1.325,0.24272,0.05657.71635-.11431,0.73481,0.47069a0.941,0.941,0,0,0,1.16119.04117,1.04182,1.04182,0,0,1,.87888-0.03452,0.81681,0.81681,0,0,1,.28557.65862c-0.02865,2.39725-.10645,4.79565-0.13117,7.19276-0.02372,2.29937-.04222,4.6.01251,6.89565,0.06119,2.56648.19862,5.1287,0.323,7.69109a0.68965,0.68965,0,0,1-.97871.76027c-0.87943-.21429-1.73639-0.51029-2.60239-0.773-2.38118-.72237-4.757-1.46121-7.14443-2.16429-2.31341-.68127-4.63564-1.33589-6.96106-1.97933-0.50308-.1392-1.05481-0.12633-1.55109-0.2804-0.68344-.21216-0.68608-0.50646-0.35726-1.15521a4.49939,4.49939,0,0,0,.57574-1.84026c0.04909-2.78756.01452-5.574-.0138-8.35981-0.02159-2.12411-.08572-4.24627-0.11665-6.37-0.01069-.73342-0.008-1.47.04354-2.2032a1.20454,1.20454,0,0,0-.64817-1.37425,0.93516,0.93516,0,0,1-.41785-0.7908A1.688,1.688,0,0,1,71.23961,61.67911Zm1.29894,2.23011c-0.01214.43274-.0415,0.85675-0.033,1.27868,0.04387,2.1641.12572,4.32647,0.14031,6.4917,0.01682,2.497-.04108,4.99717-0.02737,7.49438,0.00458,0.83495.13631,1.66431,0.197,2.49762,0.03438,0.47221.04251,0.94725,0.07048,1.61129l2.09985,0.92022c0.19862-.582-0.08863-0.71638-0.47394-0.89276a1.34209,1.34209,0,0,1-.76925-0.74442,22.86222,22.86222,0,0,1-.08865-2.36025c-0.05936-1.14174-.15949-2.27992-0.22122-3.42149a2.63265,2.63265,0,0,1,.12238-0.63164,2.35311,2.35311,0,0,1,.48417.47513,1.25329,1.25329,0,0,1,.08.58878c-0.0027,1.50572.01642,3.01174-.03629,4.51766a0.85406,0.85406,0,0,0,.93848.97925l-0.26447-1.23157c0.742-.18222.81524,0.33377,0.8118,0.72187a0.87278,0.87278,0,0,0,1.013.98346l0.37135-.6691a3.976,3.976,0,0,0,.76143.745,13.7722,13.7722,0,0,0,1.65037.68888,0.78971,0.78971,0,0,0,.45275.00909c0.76635-.20454,1.00661-0.02343.915,0.7512a0.55287,0.55287,0,0,1-.2467.40285,0.63,0.63,0,0,1-.523-0.11156c-0.15023-.61085-0.63242-0.42351-1.03259-0.46987a7.746,7.746,0,0,1-1.48121-.24778,16.80353,16.80353,0,0,1-1.69652-.758l0.14236,0.84757,5.27435,1.56394,0.03944-1.4058a1.4993,1.4993,0,0,1,.49654.42124c0.10854,0.69768.41023,0.857,1.10081,0.583,0.48586-.19273,1.06252.54175,0.8724,1.17484l5.53391,1.40314a1.278,1.278,0,0,0,.08625-0.27318c0.0267-1.98678.06464-3.974,0.06986-5.9601,0.0116-4.41051-.01038-8.82.02549-13.23115A1.05759,1.05759,0,0,0,88.52,67.45966c-1.90679-.55074-3.79849-1.15161-5.71788-1.65936-2.07012-.54762-4.15062-1.074-6.25428-1.48953C75.29152,64.06262,73.982,64.04522,72.53855,63.90923Z"/><path d="M11.30363,9.87209a1.77517,1.77517,0,0,1,.34906-0.81528,1.06706,1.06706,0,0,1,.89781.02779c3.50687,1.88,6.99149,3.79963,10.49513,5.6854,1.30184,0.70068,2.64057,1.33555,3.95948,2.00607a11.77154,11.77154,0,0,1,1.74836.94373,0.88631,0.88631,0,0,1,.2712,1.382,2.603,2.603,0,0,0-.47948,1.98647c0.01733,2.00879.0549,4.01729,0.13054,6.02257a10.11507,10.11507,0,0,0,.34164,1.63454c-0.61038.53155-.29089,1.41217-0.27869,2.19537,0.036,2.311.158,4.61774,0.24673,6.9261,0.081,2.10539.18612,4.20936,0.23714,6.31651,0.05238,2.16364.0384,4.33112,0.07982,6.49549q0.03936,2.05661.16211,4.10835c0.049,0.79675.24051,1.58189,0.25921,2.37862a2.82142,2.82142,0,0,1-.31934,1.45473,2.45443,2.45443,0,0,1-1.09732.83473q-3.25478,1.44084-6.54248,2.8016c-0.80641.335-1.66028,0.5465-2.46768,0.87928-1.62264.66879-3.23117,1.375-4.838,2.084a2.97486,2.97486,0,0,0-.77167.5124,0.8813,0.8813,0,0,1-1.21827.24817,1.53654,1.53654,0,0,1-.52337-1.133A46.44256,46.44256,0,0,0,12.019,57.0554q-0.04664-2.05873-.11435-4.11625-0.19411-5.81079-.3989-11.62081c-0.11057-3.0915-.24836-6.18112-0.34554-9.27346-0.07632-2.42855-.08569-4.86155-0.16653-7.28974Q10.80479,19.0824,10.55359,13.414c-0.04236-.98523-0.16578-1.96414-0.25061-2.9461-0.0553-.64018.11574-0.742,1.01024-0.60458,0.018,0.74632.02791,1.4932,0.05537,2.23882,0.06927,1.88081.17332,3.75956,0.21283,5.642,0.03923,1.86864-.03885,3.74483.03379,5.61039,0.11953,3.06988.34046,6.13214,0.47818,9.20083,0.10883,2.42516.14584,4.856,0.23551,7.28278,0.06925,1.87411.19243,3.74449,0.25148,5.61918,0.055,1.745.0298,3.49527,0.08946,5.23982,0.06414,1.87514.19563,3.7455,0.2802,5.61936,0.1089,2.413.19511,4.82787,0.30527,7.24077a10.77288,10.77288,0,0,0,.19536,1.1749l4.63506-1.9573L17.38183,61.176l0.03564-1.27041,0.20948-.10282,0.66332,1.24877,1.23741-.94569c0.60529,0.30448.88506,0.1795,1.218-.67464,0.64635,0.43852.96924,0.34048,1.55008-.47063,0.90189,0.13442,1.043.031,1.24018-.94292a0.6548,0.6548,0,0,0,1.11738-.08666,3.38234,3.38234,0,0,0,.23474-1.29695c-0.80144-.25167-1.44062.48141-2.05279,0.02246,0.906-.37425,1.93149-0.4439,2.25557-1.76234l0.445,0.90546L26.147,54.8765c0.96285,0.51025,1.49348-.51721,2.19364-0.6213,0.48945-1.1653-.84133-0.58879-1.00345-1.29606L28.428,52.8354l-0.099-1.28263a4.23646,4.23646,0,0,0-2.19863,2.83993l-0.06621-.77379-0.72081-.11226a3.75723,3.75723,0,0,0,.67678-1.16342c0.18279-1.49421-.37576-3.00543.16511-4.6165l-0.38066-.42611c0.92428,0.172.96705-.33,0.87711-0.88584-0.05028-.31066-0.19321-0.60214-0.27362-0.90838a2.2064,2.2064,0,0,1-.04372-0.47175c-0.02676-.70725.20531-1.59386-0.12915-2.08338-0.61613-.90178-0.00282-1.64985-0.05664-2.45408l0.211-.058,0.63018,1.94252,0.58541-.69937-0.01031.01617,0.53605,0.34156c-0.054-1.12305-.13127-2.17918-0.15057-3.2384-0.05085-2.7906-.06434-5.58325-0.12233-8.37342a16.61055,16.61055,0,0,0-.259-1.86185,2.226,2.226,0,0,0,.176-0.6878c0.0087-.74993-0.05374-1.498-0.07853-2.24745-0.05949-1.79891-.05809-3.60426-0.19209-5.39488a2.71458,2.71458,0,0,0-1.2868-2.55017c-3.32737-1.7331-6.646-3.4843-9.92691-5.29977A25.86146,25.86146,0,0,0,11.30363,9.87209Zm14.62058,47.503a12.14486,12.14486,0,0,1-1.25252.99033c-1.12936.68162-2.28826,1.31229-3.41,1.949,0.09456,0.26409.18525,0.51738,0.2759,0.77074L19.97794,60.699l0.10256,1.2237c-0.38232-.25545-0.57412-0.39483-0.77727-0.51578a0.98717,0.98717,0,0,0-.50374-0.23734c-0.70281.10662-.76131,0.44783-0.22974,1.20118,0.788-.28565,1.58239-0.55775,2.36324-0.86684a2.98013,2.98013,0,0,0,.59576-0.42774c1.44716-.61847,2.91079-1.19972,4.33484-1.87038a24.2761,24.2761,0,0,0,2.21077-1.33081l0.419-3.01962a10.88111,10.88111,0,0,0-1.57917.65735,4.04885,4.04885,0,0,0-.76.83981l0.7753,0.608c-0.34572.1412-.67132,0.27418-0.99683,0.40709l-0.023-1.2362-0.24577-.10265a1.67565,1.67565,0,0,0-.3759.66412C25.29577,57.0399,25.28537,57.55616,25.92422,57.37512ZM28.12436,42.4018l-0.33941-.07232-0.31257,2.69409L27.09414,43.6004a14.84966,14.84966,0,0,0-.01345,2.83921,0.63878,0.63878,0,0,0,.34012.35891c0.391,0.22087.39287,0.47154,0.11381,0.808a1.74526,1.74526,0,0,0-.41111.64273,13.552,13.552,0,0,0-.17855,1.44618l-0.11386.00811L26.66942,48.5739c-0.6112.84158-.00163,1.66656-0.27382,2.6039l0.6291-.4183L26.659,51.838a1.28652,1.28652,0,0,0,.57263-0.09158,2.44455,2.44455,0,0,0,1.1642-2.32322,10.81144,10.81144,0,0,1-.098-1.59493C28.23608,46.01976,28.18162,44.21068,28.12436,42.4018Z"/><path d="M29.6872,62.09056c0.04644,0.37469.11669,0.74744,0.13433,1.12449,0.03551,0.759.0673,1.51982,0.05561,2.28077-0.02083,1.35665-.11535,2.71564-0.105,4.07052,0.01264,1.66238.10524,3.32125,0.15585,4.98213,0.05106,1.67573.0723,3.35372,0.14728,5.02747,0.04044,0.90255.1679,1.79806,0.25252,2.6972a1.00064,1.00064,0,0,1-.79825,1.06888c-1.35394.55677-2.71335,1.10667-4.036,1.73657-2.98078,1.41961-5.94346,2.87982-8.907,4.33742-0.74125.36457-1.47129,0.75858-2.18242,1.18126-0.72761.43248-1.15062,0.295-1.26826-.50367a19.28066,19.28066,0,0,1-.20607-4.59919,41.58058,41.58058,0,0,0-.1787-4.98675c-0.05368-1.72838-.00156-3.46547-0.10521-5.18834-0.11126-1.84922.12807-3.74844-.5197-5.53128a1.709,1.709,0,0,1,.84313-1.47274c1.38926-.507,2.797-0.979,4.14135-1.59555,2.0817-.95465,4.11834-2.01436,6.17157-3.0349,1.69427-.84213,3.377-1.70951,5.084-2.5231a1.354,1.354,0,0,1,1.07767-.10914,1.93477,1.93477,0,0,1,.16941,1.03768ZM19.877,86.754l0.05232-.046,1.678-.75685-0.01448.01378c1.45338-.71046,2.91522-1.40339,4.35688-2.13815,0.824-.42.83264-0.55377,0.45085-1.06876l0.33306-2.92628-1.06012.00724-0.122-.2056c1.16588-.29527,1.11217-1.09062.99244-1.91082-0.02194-.15026-0.07745-0.29614-0.08586-0.4469-0.04233-.75885-0.07419-1.51866-0.10973-2.27812l0.24436-.01307,0.571,3.14178a11.47517,11.47517,0,0,0,.18877-1.76749,1.00995,1.00995,0,0,1,.29785-0.37275,0.90309,0.90309,0,0,1,.2468.37483c-0.02751,1.20511-.08437,2.41058-0.13,3.61594-0.01614.42626-.02459,0.85254-0.03908,1.369-0.67989.45818-.75676,0.69818-0.31164,1.7968,0.53827-.5409,1.36686-0.991,1.4295-1.50764a35.89282,35.89282,0,0,0,.10443-4.84206c-0.02875-1.95128-.13806-3.89847-0.1754-5.84944-0.04745-2.47954-.05083-4.96146-0.0884-7.44158a0.715,0.715,0,0,0-1.11387-.68775c-1.79368.77085-3.64516,1.42851-5.36492,2.34563-2.74023,1.46131-5.90811,2.12176-8.16644,4.49348a1.14637,1.14637,0,0,0-.37079.59833c-0.068,1.75562-.17645,3.51693-0.11753,5.26591,0.0957,2.84093.32021,5.67283,0.46661,8.5106,0.05722,1.10906.03288,2.225,0.07922,3.33524,0.027,0.64719.12038,1.2893,0.19338,2.03l2.93264-1.26858c-0.09473-.68288-0.20073-1.32516-0.26133-1.97325a1.28581,1.28581,0,0,1,.19091-0.49191,1.5319,1.5319,0,0,1,.37641.44669,4.96135,4.96135,0,0,1,.09286.82765c0.10654,0.81224.3805,0.931,1.12232,0.49294C19.1237,87.20382,19.5,86.97834,19.877,86.754Z"/><path d="M8.076,27.33589l0.38671,0.6984a1.51106,1.51106,0,0,1-.58615.29846,1.10029,1.10029,0,0,1-.45489-0.36525Z"/><path d="M76.45386,51.759l0.21611-.6688,0.22631-.001,0.06714,2.65789-0.23289.01426c-0.066-.39912-0.11329-0.80349-0.21054-1.19379a0.7581,0.7581,0,0,0-.31506-0.23989,1.07262,1.07262,0,0,0-.19289.35535c-0.03458.395-.031,0.79207-0.04215,1.18834l-0.18764.01545a1.626,1.626,0,0,1-.06926-0.53075,1.029,1.029,0,0,0-.94048-1.37124c-0.67382-.16458-0.65505-0.23245-0.59393-0.991,0.46179,0.21341.92691,0.4284,1.46272,0.676l0.06093-2.17206c-0.56662.42325-1.54928-.29355-1.56825,0.947l-0.08079-2.17559,0.17064-.10623c0.18193,0.83191.58808,1.21631,1.43478,0.7658-0.03387-.79281-0.0527-1.60608-0.109-2.41543a1.03121,1.03121,0,0,0-.79756-1.01981c-0.81382-.25391-0.85625-0.50807-0.44864-1.22116L75.34292,45.306l0.16572-1.2244,0.2978-.082c-0.0138.84058,0.08975,1.5906,1.28,1.60982-1.36154.24134-1.138,1.08783-1.127,1.82293,0.01719,1.14775.03151,2.29593,0.07416,3.442a5.71211,5.71211,0,0,0,.18438.927Z"/><path d="M79.12458,57.40762A7.1608,7.1608,0,0,0,79.0178,59.094a1.86767,1.86767,0,0,0,.863.453c0.11933-.70955-0.38976-1.38692.31044-1.848a4.82945,4.82945,0,0,0,.67949,1.89343,7.76747,7.76747,0,0,0,1.80217.64324c-0.2929-.01247-0.58545-0.03394-0.87879-0.03519-0.397-.00169-0.79715.03634-1.19085,0.00864-0.182-.0128-0.34435-0.17575-0.52879-0.20922-0.38689-.07023-0.78251-0.09982-1.2003-0.14913-0.80407-.2035-1.64627-0.43988-2.50112-0.62566-0.68774-.14949-1.39358-0.22556-2.08526-0.361a2.36357,2.36357,0,0,1-.54517-0.26036l0.08562-.26291,4.65157,0.90348c0.27048-1.197.14774-1.42079-.91865-1.67047-0.53712-.12574-1.086-0.20737-1.66924-0.31635l-0.16073.72552-0.17044-.00967,0.09772-3.48321,0.21963-.00915c-0.01446.51547-.0084,1.03186-0.04922,1.54615a0.6486,0.6486,0,0,0,.65558.80468c0.79387,0.11174,1.57943.27417,2.36378,0.435A0.61253,0.61253,0,0,1,79.12458,57.40762Z"/><path d="M76.44156,39.80948l-1.67206.13967-0.06588,2.34847,0.98571,0.54151c-0.89151.62219-1.32178,0.44483-1.38115-.42705-0.0238-.34924.04732-0.7074,0.0376-1.05916-0.01768-.63972.27585-1.43022-0.69522-1.64963a0.26938,0.26938,0,0,1-.11789-0.18024,1.0472,1.0472,0,0,1,.00279-0.26371l0.92508-.14027c-0.07111-3.043-.14268-6.10518-0.21423-9.16739l0.28228-.05059a2.27694,2.27694,0,0,1,.1927.61815q0.06393,3.85328.09169,7.70839c0.00394,0.66739.14462,1.15179,0.9405,1.1497a3.54112,3.54112,0,0,1,.70459.13831Z"/><path d="M76.47021,55.60864l0.24007-.82953c0.49446,1.09879,1.69464.33893,2.48379,1.05076A4.79977,4.79977,0,0,1,76.47021,55.60864Z"/><path d="M74.14829,47.80652l0.05668-2.0206,0.1952,0.00243-0.05689,2.02782Z"/><path d="M27.60514,41.68236c-0.42667.31386-.45292,0.00784-0.48371-0.30025-0.06747-.67505-0.1382-1.34969-0.20909-2.039L25.89656,39.35l-0.04283-.28276L26.927,38.815c-0.12806-1.32-.24541-2.75566-0.4322-4.17985a1.19093,1.19093,0,0,0-.62455-0.46208,6.72739,6.72739,0,0,0-.75427-0.30375,1.06989,1.06989,0,0,1,.19253-0.25918c1.19425-.25941,1.19327-0.25837.99785-1.49847-0.23923-1.51811-.48176-3.03567-0.70544-4.55661a1.42522,1.42522,0,0,1,.13823-0.49446,1.10754,1.10754,0,0,1,.72813,1.1693c0.09976,1.58755.247,3.171,0.40971,4.75137a1.34387,1.34387,0,0,0,.25514.54213,8.72328,8.72328,0,0,0-.10231,1.15411c0.13139,2.17142.28012,4.34122,0.43163,6.51067a2.76273,2.76273,0,0,0,.13338.51039Z"/><path d="M19.877,86.754c-0.41056.13224-.81573,0.29332-1.23377,0.38553a3.02661,3.02661,0,0,1-.74626-0.017l0.00852-.216a2.83169,2.83169,0,0,0,1.04-.62491,2.59353,2.59353,0,0,0,.07106-1.17287l0.20682-.13792a6.804,6.804,0,0,1,.47973.58464c0.14113,0.21381.2415,0.45537,0.42566,0.81274,0.01122-.01906-0.09452.16064-0.19984,0.34Z"/><path d="M21.6073,85.9511a0.82486,0.82486,0,0,1-.4244-0.03284,2.94781,2.94781,0,0,1-.30666-0.79248,0.72775,0.72775,0,0,1,.23011-0.25764,3.74856,3.74856,0,0,1,.45935.59145,1.29444,1.29444,0,0,1,.02716.50531Z"/></g></svg>
