<svg width="32" height="33" viewBox="0 0 32 33" fill="none" xmlns="http://www.w3.org/2000/svg">
<path d="M7.968 24.216C7.456 24.216 7.04 24.096 6.72 23.856C6.4 23.6 6.144 23.216 5.952 22.704L1.104 9.072C0.896 8.464 0.936 7.944 1.224 7.512C1.528 7.08 2.048 6.864 2.784 6.864C3.296 6.864 3.688 6.984 3.96 7.224C4.248 7.464 4.48 7.84 4.656 8.352L8.616 20.136H7.584L11.76 8.376C11.952 7.864 12.184 7.488 12.456 7.248C12.744 6.992 13.12 6.864 13.584 6.864C14.032 6.864 14.392 6.992 14.664 7.248C14.936 7.488 15.168 7.872 15.36 8.4L19.344 20.136H18.456L22.488 8.352C22.648 7.856 22.872 7.488 23.16 7.248C23.448 6.992 23.84 6.864 24.336 6.864C24.96 6.864 25.416 7.08 25.704 7.512C25.992 7.944 26.024 8.464 25.8 9.072L20.904 22.728C20.728 23.224 20.488 23.6 20.184 23.856C19.88 24.096 19.464 24.216 18.936 24.216C18.424 24.216 18.016 24.096 17.712 23.856C17.408 23.6 17.16 23.216 16.968 22.704L13.176 11.976H13.752L9.912 22.728C9.72 23.224 9.472 23.6 9.168 23.856C8.88 24.096 8.48 24.216 7.968 24.216Z" fill="#52B3A7"/>
<path d="M12.968 24.216C12.456 24.216 12.04 24.096 11.72 23.856C11.4 23.6 11.144 23.216 10.952 22.704L6.104 9.072C5.896 8.464 5.936 7.944 6.224 7.512C6.528 7.08 7.048 6.864 7.784 6.864C8.296 6.864 8.688 6.984 8.96 7.224C9.248 7.464 9.48 7.84 9.656 8.352L13.616 20.136H12.584L16.76 8.376C16.952 7.864 17.184 7.488 17.456 7.248C17.744 6.992 18.12 6.864 18.584 6.864C19.032 6.864 19.392 6.992 19.664 7.248C19.936 7.488 20.168 7.872 20.36 8.4L24.344 20.136H23.456L27.488 8.352C27.648 7.856 27.872 7.488 28.16 7.248C28.448 6.992 28.84 6.864 29.336 6.864C29.96 6.864 30.416 7.08 30.704 7.512C30.992 7.944 31.024 8.464 30.8 9.072L25.904 22.728C25.728 23.224 25.488 23.6 25.184 23.856C24.88 24.096 24.464 24.216 23.936 24.216C23.424 24.216 23.016 24.096 22.712 23.856C22.408 23.6 22.16 23.216 21.968 22.704L18.176 11.976H18.752L14.912 22.728C14.72 23.224 14.472 23.6 14.168 23.856C13.88 24.096 13.48 24.216 12.968 24.216Z" fill="#C96C17" fill-opacity="0.8"/>
</svg>
